{
  "accessors": [
    {
      "bufferView": 0,
      "componentType": 5125,
      "count": 33138,
      "type": "SCALAR"
    },
    {
      "bufferView": 1,
      "componentType": 5126,
      "count": 5608,
      "max": [
        1.20241808891296,
        0.871906936168671,
        1.3619157075882
      ],
      "min": [
        -1.20241808891296,
        -0.868047416210175,
        -0.875882029533386
      ],
      "type": "VEC3"
    },
    {
      "bufferView": 2,
      "componentType": 5126,
      "count": 5608,
      "type": "VEC3"
    },
    {
      "bufferView": 3,
      "componentType": 5126,
      "count": 5608,
      "type": "VEC4"
    },
    {
      "bufferView": 4,
      "componentType": 5126,
      "count": 5608,
      "type": "VEC2"
    },
    {
      "bufferView": 5,
      "componentType": 5125,
      "count": 4068,
      "type": "SCALAR"
    },
    {
      "bufferView": 6,
      "componentType": 5126,
      "count": 762,
      "max": [
        1.09051465988159,
        0.606049239635468,
        0.467179417610168
      ],
      "min": [
        -1.09051465988159,
        0.0664148926734924,
        -0.272194445133209
      ],
      "type": "VEC3"
    },
    {
      "bufferView": 7,
      "componentType": 5126,
      "count": 762,
      "type": "VEC3"
    },
    {
      "bufferView": 8,
      "componentType": 5126,
      "count": 762,
      "type": "VEC4"
    },
    {
      "bufferView": 9,
      "componentType": 5126,
      "count": 762,
      "type": "VEC2"
    },
    {
      "bufferView": 10,
      "componentType": 5125,
      "count": 8316,
      "type": "SCALAR"
    },
    {
      "bufferView": 11,
      "componentType": 5126,
      "count": 1496,
      "max": [
        1.10060977935791,
        -0.696251094341278,
        0.984514713287354
      ],
      "min": [
        -1.10060977935791,
        -2.71937346458435,
        -0.824891209602356
      ],
      "type": "VEC3"
    },
    {
      "bufferView": 12,
      "componentType": 5126,
      "count": 1496,
      "type": "VEC3"
    },
    {
      "bufferView": 13,
      "componentType": 5126,
      "count": 1496,
      "type": "VEC4"
    },
    {
      "bufferView": 14,
      "componentType": 5126,
      "count": 1496,
      "type": "VEC2"
    },
    {
      "bufferView": 15,
      "componentType": 5125,
      "count": 10578,
      "type": "SCALAR"
    },
    {
      "bufferView": 16,
      "componentType": 5126,
      "count": 2004,
      "max": [
        0.362574011087418,
        -0.636014640331268,
        1.1698956489563
      ],
      "min": [
        -0.362574011087418,
        -2.0329704284668,
        0.749634444713593
      ],
      "type": "VEC3"
    },
    {
      "bufferView": 17,
      "componentType": 5126,
      "count": 2004,
      "type": "VEC3"
    },
    {
      "bufferView": 18,
      "componentType": 5126,
      "count": 2004,
      "type": "VEC4"
    },
    {
      "bufferView": 19,
      "componentType": 5126,
      "count": 2004,
      "type": "VEC2"
    },
    {
      "bufferView": 20,
      "componentType": 5125,
      "count": 10152,
      "type": "SCALAR"
    },
    {
      "bufferView": 21,
      "componentType": 5126,
      "count": 1780,
      "max": [
        1.20568311214447,
        -0.473873764276505,
        0.98742151260376
      ],
      "min": [
        -1.20568311214447,
        -1.19637823104858,
        -0.991626977920532
      ],
      "type": "VEC3"
    },
    {
      "bufferView": 22,
      "componentType": 5126,
      "count": 1780,
      "type": "VEC3"
    },
    {
      "bufferView": 23,
      "componentType": 5126,
      "count": 1780,
      "type": "VEC4"
    },
    {
      "bufferView": 24,
      "componentType": 5126,
      "count": 1780,
      "type": "VEC2"
    }
  ],
  "asset": {
    "generator": "Adobe Substance 3D Painter 10.0.1",
    "version": "2.0"
  },
  "bufferViews": [
    {
      "buffer": 0,
      "byteLength": 132552,
      "target": 34963
    },
    {
      "buffer": 0,
      "byteLength": 67296,
      "byteOffset": 132552,
      "target": 34962
    },
    {
      "buffer": 0,
      "byteLength": 67296,
      "byteOffset": 199848,
      "target": 34962
    },
    {
      "buffer": 0,
      "byteLength": 89728,
      "byteOffset": 267144,
      "target": 34962
    },
    {
      "buffer": 0,
      "byteLength": 44864,
      "byteOffset": 356872,
      "target": 34962
    },
    {
      "buffer": 0,
      "byteLength": 16272,
      "byteOffset": 401736,
      "target": 34963
    },
    {
      "buffer": 0,
      "byteLength": 9144,
      "byteOffset": 418008,
      "target": 34962
    },
    {
      "buffer": 0,
      "byteLength": 9144,
      "byteOffset": 427152,
      "target": 34962
    },
    {
      "buffer": 0,
      "byteLength": 12192,
      "byteOffset": 436296,
      "target": 34962
    },
    {
      "buffer": 0,
      "byteLength": 6096,
      "byteOffset": 448488,
      "target": 34962
    },
    {
      "buffer": 0,
      "byteLength": 33264,
      "byteOffset": 454584,
      "target": 34963
    },
    {
      "buffer": 0,
      "byteLength": 17952,
      "byteOffset": 487848,
      "target": 34962
    },
    {
      "buffer": 0,
      "byteLength": 17952,
      "byteOffset": 505800,
      "target": 34962
    },
    {
      "buffer": 0,
      "byteLength": 23936,
      "byteOffset": 523752,
      "target": 34962
    },
    {
      "buffer": 0,
      "byteLength": 11968,
      "byteOffset": 547688,
      "target": 34962
    },
    {
      "buffer": 0,
      "byteLength": 42312,
      "byteOffset": 559656,
      "target": 34963
    },
    {
      "buffer": 0,
      "byteLength": 24048,
      "byteOffset": 601968,
      "target": 34962
    },
    {
      "buffer": 0,
      "byteLength": 24048,
      "byteOffset": 626016,
      "target": 34962
    },
    {
      "buffer": 0,
      "byteLength": 32064,
      "byteOffset": 650064,
      "target": 34962
    },
    {
      "buffer": 0,
      "byteLength": 16032,
      "byteOffset": 682128,
      "target": 34962
    },
    {
      "buffer": 0,
      "byteLength": 40608,
      "byteOffset": 698160,
      "target": 34963
    },
    {
      "buffer": 0,
      "byteLength": 21360,
      "byteOffset": 738768,
      "target": 34962
    },
    {
      "buffer": 0,
      "byteLength": 21360,
      "byteOffset": 760128,
      "target": 34962
    },
    {
      "buffer": 0,
      "byteLength": 28480,
      "byteOffset": 781488,
      "target": 34962
    },
    {
      "buffer": 0,
      "byteLength": 14240,
      "byteOffset": 809968,
      "target": 34962
    }
  ],
  "buffers": [
    {
      "byteLength": 824208,
      "uri": "Frog.bin"
    }
  ],
  "images": [
    {
      "uri": "standardSurface1_baseColor.png"
    },
    {
      "uri": "standardSurface1_occlusionRoughnessMetallic.png"
    },
    {
      "uri": "standardSurface1_normal.png"
    }
  ],
  "materials": [
    {
      "alphaMode": "OPAQUE",
      "name": "standardSurface1",
      "normalTexture": {
        "index": 2
      },
      "occlusionTexture": {
        "index": 1
      },
      "pbrMetallicRoughness": {
        "baseColorTexture": {
          "index": 0
        },
        "metallicRoughnessTexture": {
          "index": 1
        }
      }
    }
  ],
  "meshes": [
    {
      "name": "polySurface1",
      "primitives": [
        {
          "attributes": {
            "NORMAL": 2,
            "POSITION": 1,
            "TANGENT": 3,
            "TEXCOORD_0": 4
          },
          "indices": 0,
          "material": 0,
          "mode": 4
        }
      ]
    },
    {
      "name": "polySurface2",
      "primitives": [
        {
          "attributes": {
            "NORMAL": 7,
            "POSITION": 6,
            "TANGENT": 8,
            "TEXCOORD_0": 9
          },
          "indices": 5,
          "material": 0,
          "mode": 4
        }
      ]
    },
    {
      "name": "polySurface3",
      "primitives": [
        {
          "attributes": {
            "NORMAL": 12,
            "POSITION": 11,
            "TANGENT": 13,
            "TEXCOORD_0": 14
          },
          "indices": 10,
          "material": 0,
          "mode": 4
        }
      ]
    },
    {
      "name": "polySurface4",
      "primitives": [
        {
          "attributes": {
            "NORMAL": 17,
            "POSITION": 16,
            "TANGENT": 18,
            "TEXCOORD_0": 19
          },
          "indices": 15,
          "material": 0,
          "mode": 4
        }
      ]
    },
    {
      "name": "polySurface5",
      "primitives": [
        {
          "attributes": {
            "NORMAL": 22,
            "POSITION": 21,
            "TANGENT": 23,
            "TEXCOORD_0": 24
          },
          "indices": 20,
          "material": 0,
          "mode": 4
        }
      ]
    }
  ],
  "nodes": [
    {
      "children": [
        1,
        3,
        5,
        7,
        9
      ],
      "name": "RootNode",
      "scale": [
        0.00999999977648258,
        0.00999999977648258,
        0.00999999977648258
      ]
    },
    {
      "children": [
        2
      ],
      "name": "polySurface1",
      "translation": [
        0.0,
        4.24314403533936,
        0.0
      ]
    },
    {
      "mesh": 0,
      "name": "polySurface1"
    },
    {
      "children": [
        4
      ],
      "name": "polySurface2",
      "translation": [
        0.0,
        4.24314403533936,
        0.0
      ]
    },
    {
      "mesh": 1,
      "name": "polySurface2"
    },
    {
      "children": [
        6
      ],
      "name": "polySurface3",
      "translation": [
        0.0,
        4.24314403533936,
        0.0
      ]
    },
    {
      "mesh": 2,
      "name": "polySurface3"
    },
    {
      "children": [
        8
      ],
      "name": "polySurface4",
      "translation": [
        0.0,
        4.24314403533936,
        0.0
      ]
    },
    {
      "mesh": 3,
      "name": "polySurface4"
    },
    {
      "children": [
        10
      ],
      "name": "polySurface5",
      "translation": [
        0.0,
        4.24314403533936,
        0.0
      ]
    },
    {
      "mesh": 4,
      "name": "polySurface5"
    }
  ],
  "samplers": [
    {
      "magFilter": 9729,
      "minFilter": 9985,
      "wrapS": 10497,
      "wrapT": 10497
    }
  ],
  "scene": 0,
  "scenes": [
    {
      "name": "Scene",
      "nodes": [
        0
      ]
    }
  ],
  "textures": [
    {
      "sampler": 0,
      "source": 0
    },
    {
      "sampler": 0,
      "source": 1
    },
    {
      "sampler": 0,
      "source": 2
    }
  ]
}